PathFileType	4	(X/Y/Z)	Patient4_TMGait_0pt2_02_right_21.trc.trc
DataRate	CameraRate	NumFrames	NumMarkers	Units	OrigDataRate	OrigDataStartFrame	OrigNumFrames
46.204620462046	46.204620462046	4	33	mm	46.204620462046	18	       141
Frame#	Time	R.Midfoot.Superior			Sacral			L.Shoulder			Chest			R.Shoulder			Neck			R.ASIS			L.ASIS			R.Thigh.Superior			R.Thigh.Lateral			R.Thigh.Inferior			R.Patella			L.Thigh.Superior			L.Thigh.Lateral			L.Thigh.Inferior			L.Patella			L.Shank.Superior			L.Shank.Lateral			L.Shank.Inferior			R.Shank.Superior			R.Shank.Lateral			R.Shank.Inferior			R.Heel			R.Midfoot.Lateral			R.Toe			L.Heel			L.Midfoot.Lateral			L.Midfoot.Superior			L.Toe			L.Elbow			L.Wrist			R.Elbow			R.Wrist			
		X1	Y1	Z1	X2	Y2	Z2	X3	Y3	Z3	X4	Y4	Z4	X5	Y5	Z5	X6	Y6	Z6	X7	Y7	Z7	X8	Y8	Z8	X9	Y9	Z9	X10	Y10	Z10	X11	Y11	Z11	X12	Y12	Z12	X13	Y13	Z13	X14	Y14	Z14	X15	Y15	Z15	X16	Y16	Z16	X17	Y17	Z17	X18	Y18	Z18	X19	Y19	Z19	X20	Y20	Z20	X21	Y21	Z21	X22	Y22	Z22	X23	Y23	Z23	X24	Y24	Z24	X25	Y25	Z25	X26	Y26	Z26	X27	Y27	Z27	X28	Y28	Z28	X29	Y29	Z29	X30	Y30	Z30	X31	Y31	Z31	X32	Y32	Z32	X33	Y33	Z33	

18	46.827928571429	1257.648978670099	118.196750719920	628.623351085400	905.675504585873	1006.547326943070	396.258395560683	1142.339043186285	1438.298129719472	274.903993877833	1186.526678930631	1364.114957439446	456.715052143371	1056.993967542170	1439.337859411667	597.466075274848	1076.617230775604	1496.632826880695	422.102510917183	1104.320708925765	944.860018611917	565.894647999843	1151.250562185816	962.419072124092	294.156204810500	1180.194513235203	766.924354524304	546.154514917501	1121.722420741903	649.455779569517	615.814159817825	1212.861632509579	605.448735207318	544.755289271777	1239.085664495292	519.706284727784	566.200672412361	1176.945409840507	743.359323726549	335.145761021728	1095.145158770474	626.361978322682	260.718409257874	1160.114934765990	549.485240464731	342.331395357030	1154.946110398078	480.324544987975	351.496736181195	1120.970084471601	408.031534969912	339.553488344135	1027.334463878151	299.679737245822	283.116642164462	1060.228884039392	187.302467020417	361.870958169223	1213.409002517666	429.562212643140	580.889200397785	1144.789612458313	327.100214617853	650.271462223139	1204.136719014752	229.657509556780	605.988410036522	1092.158252158271	45.684197783747	589.051788421731	1176.935411623382	43.333655530773	661.792504593064	1381.537602580388	80.413020766599	654.744014789468	919.666028097319	38.266570581137	400.690972124601	994.113837603495	35.738921967756	320.070372738454	1077.518775519859	95.983290283515	348.977257960283	1205.783085837880	45.478918982611	320.067909954176	1313.346098696091	1163.994234331437	125.673253693013	1566.166186189465	1139.344990986212	184.094870067104	868.463466995154	1140.660829840530	657.189081678403	828.812227489320	881.680106571696	655.025437668130	
19	46.849571428571	1265.186174270859	117.408814932144	630.214195680731	905.232719275850	1007.133609973920	398.085215176039	1144.480684513040	1437.828073445788	279.187039743458	1186.284586645606	1363.895414570563	461.666197647001	1055.461381255434	1440.110788868620	600.641793265719	1077.277404216953	1496.758883064287	425.432583259525	1101.537283900957	944.302585117385	570.009375499219	1151.457714623707	962.735937233144	298.868173091965	1175.846565266117	765.171741672991	551.438010683852	1114.329437264716	647.702496542279	619.036265004261	1206.422101337433	603.758265885921	549.479110306174	1231.256634646134	519.729183379066	569.402273533360	1174.342693955415	742.720747807937	338.094372486062	1091.299619391232	627.279455385413	261.991088194903	1154.473700310620	549.133272709740	343.424151276416	1148.133847992978	480.453323360692	352.264112384579	1114.983390460555	408.572007991388	340.011319401402	1022.063343616687	299.859762668313	283.119663154968	1055.271193995560	187.597078099122	361.993118055242	1209.211013449125	429.197749795506	583.812670113772	1144.209991609892	324.049925666472	652.898083192936	1207.067438409227	228.814219850872	608.306917623249	1100.701851311361	42.864214994607	590.931184549322	1185.871135274906	41.106763903605	663.178948993411	1389.770791452085	81.210916768575	655.229598808602	915.261775522720	38.205628578580	400.636125247929	989.712477661092	35.652782317651	319.998731278648	1073.072730249892	95.980050266405	348.939984489525	1201.384161542936	45.615621468634	320.127455852601	1319.568101655358	1166.773929738256	131.247796513740	1572.581623806679	1152.180615379147	191.523022438377	866.178033097247	1141.782535300702	658.048624950281	829.505948643387	882.163839828556	654.676570771532	
20	46.871214285714	1269.688148775015	116.322726006294	631.239504340498	905.184821489433	1007.214902720154	400.461179788710	1146.236074254680	1437.083137200687	283.838180759646	1186.165609773388	1363.412963115327	466.859683576774	1054.261130205640	1440.370118752327	604.376511166020	1077.893433422783	1496.519505617280	429.280870280804	1099.455034178978	943.289139099761	574.229009537269	1151.951424257105	962.862582162560	303.691646274965	1172.414153411390	762.994592558006	556.574797136263	1107.998035853228	645.465960411756	621.905722353773	1201.118472424439	601.723943822620	553.803020337442	1224.329876836379	519.011585728527	572.238573555472	1172.315534022963	741.945924658217	341.096197013751	1088.049293023814	628.003647778672	263.473722742949	1149.522898262850	548.652571239310	344.632912344306	1142.063139714076	480.390481516375	353.147359810553	1109.602565647964	408.906805486829	340.619966106040	1017.187510400572	300.029319922176	283.257201859519	1050.530346814701	187.794255244446	362.175418784000	1205.168642638631	428.246499894486	586.391712528466	1142.748955141029	321.265020233427	654.904911448622	1208.172731075976	227.842068310450	610.131215012359	1105.739414339622	41.452268871937	592.129916737175	1191.062380089157	39.691885922510	664.073003871658	1394.405928106323	80.566659094191	655.517262211887	910.867204689439	38.169889869005	400.587959504668	985.319111589101	35.587996659494	319.933801825697	1068.650453271877	95.977688477084	348.917474028546	1196.994181366035	45.724194687068	320.175812543321	1324.876351267261	1168.790415940251	137.196165038547	1577.797873595343	1163.689263688854	199.035437952166	865.501766933765	1141.450872736655	659.717945662778	832.083412571252	881.137640235408	655.165122436196	
21	46.892857142857	1271.551022404639	114.841755957938	631.620837883469	905.560360410708	1006.916885552431	403.385016240163	1147.663045125286	1436.190519954980	288.857560769948	1186.205221979794	1362.781193517932	472.309747232135	1053.404748169765	1440.236711725589	608.674889169485	1078.479329312805	1496.023428192237	433.654511178846	1098.125675462267	941.956206162738	578.571223075814	1152.793045189893	962.868423210442	308.626347638059	1169.962554768280	760.542030846364	561.490841019800	1102.895740742136	642.925255581278	624.464936341415	1197.027344732083	599.490426476487	557.670443474559	1218.493426110181	517.700469306253	574.716308786408	1170.844613013538	741.068815260573	344.187062678616	1085.333819387738	628.582130918919	265.212027929213	1145.189982217249	548.077887111138	346.011111289948	1136.664481549854	480.173952428256	354.192824190159	1104.751295365656	409.086529359468	341.413210590810	1012.639426482432	300.228996776141	283.561724836592	1045.974540154145	187.922601738836	362.425190004991	1201.481144011274	426.803348473789	588.613153033854	1140.668850143035	318.674732137379	656.352346484634	1207.784392612867	226.626750653280	611.438916665733	1107.659101912529	40.987255168712	592.732168244390	1192.993772443573	38.790527660156	664.504258861435	1396.019676916387	78.592723962038	655.455152918328	906.481021359387	38.165571965977	400.548852438691	980.931571509153	35.553009027765	319.880297401312	1064.248294388304	95.984869385861	348.909957851109	1192.606780091615	45.808380309887	320.214102323619	1329.290237628819	1170.150520429778	143.431600046429	1581.871378372920	1173.835123238881	206.554066452659	866.222330813824	1139.957838960807	662.251135821980	836.171853156327	878.968191568934	656.633091613551	
